# xmcd
#
# Track frame offsets:
#	150
#	19149
#	34689
#	51055
#	66518
#	82052
#	101621
#	120615
#	136171
#	152537
#	167991
#	183543
#
# Disc length: 2708 seconds
#
# Revision: 2
# Processed by: cddbd v1.5.2PL0 Copyright (c) Steve Scherf et al.
# Submitted via: audiograbber 1.83.01
#
DISCID=a00a920c
DTITLE=Various Artist - CB20077
DYEAR=1900
DGENRE=Country
TTITLE0=Michael Peterson - Somethin' 'Bout a Sunday (Vocal)
TTITLE1=Hillsong - From the Inside Out (Vocal)
TTITLE2=Jon Randall - Cold Coffee Morning (Vocal)
TTITLE3=The Great Divide - San Isabella (Vocals)
TTITLE4=Chely Wright - Single White Female (Vocal)
TTITLE5=Kenny Chesney - She Thinks my Tractor's Sexy (Guide Vocals)
TTITLE6=Michael Peterson - Somethin' 'Bout a Sunday
TTITLE7=Hillsong - From the Inside Out 
TTITLE8=Jon Randall - Cold Coffee Morning
TTITLE9=The Great Divide - San Isabella
TTITLE10=Chely Wright - Single White Female
TTITLE11=Kenny Chesney - She Thinks My Tractor's Sexy (Performance Tracks)
EXTD=
EXTT0=
EXTT1=
EXTT2=
EXTT3=
EXTT4=
EXTT5=
EXTT6=
EXTT7=
EXTT8=
EXTT9=
EXTT10=
EXTT11=
PLAYORDER=
